PathFileType	4	(X/Y/Z)	 s10c0303.trc
DataRate	CameraRate	NumFrames	NumMarkers	Units	OrigDataRate	OrigDataStartFrame	OrigNumFrames
200	200	6	50	mm	200	1	2000
Frame#	Time	racr			lacr			c7			jug			rlel			rdr			llel			ldr			s2			lic			ric			lasi			rasi			rpsi			lpsi			rgt			lgt			rth1			rth2			rth3			rth4			rlfc			rmfc			rsh1			rsh2			rsh3			rsh4			rlmal			rmmal			rcal			rtoe			rmt5			lth1			lth2			lth4			lth3			llfc			lmfc			llmal			lmmal			lcal			lmt5			lsh1			lsh2			lsh3			lsh4			ltoe			SBIKE			LBIKE			RBIKE			
		X1	Y1	Z1	X2	Y2	Z2	X3	Y3	Z3	X4	Y4	Z4	X5	Y5	Z5	X6	Y6	Z6	X7	Y7	Z7	X8	Y8	Z8	X9	Y9	Z9	X10	Y10	Z10	X11	Y11	Z11	X12	Y12	Z12	X13	Y13	Z13	X14	Y14	Z14	X15	Y15	Z15	X16	Y16	Z16	X17	Y17	Z17	X18	Y18	Z18	X19	Y19	Z19	X20	Y20	Z20	X21	Y21	Z21	X22	Y22	Z22	X23	Y23	Z23	X24	Y24	Z24	X25	Y25	Z25	X26	Y26	Z26	X27	Y27	Z27	X28	Y28	Z28	X29	Y29	Z29	X30	Y30	Z30	X31	Y31	Z31	X32	Y32	Z32	X33	Y33	Z33	X34	Y34	Z34	X35	Y35	Z35	X36	Y36	Z36	X37	Y37	Z37	X38	Y38	Z38	X39	Y39	Z39	X40	Y40	Z40	X41	Y41	Z41	X42	Y42	Z42	X43	Y43	Z43	X44	Y44	Z44	X45	Y45	Z45	X46	Y46	Z46	X47	Y47	Z47	X48	Y48	Z48	X49	Y49	Z49	X50	Y50	Z50	
1	0.0050	427.602072	1303.689256	-17.463676	450.789457	1313.543897	-350.877491	430.784316	1348.808053	-183.620308	453.069171	1208.356379	-180.629505	504.986495	1054.733666	51.997379	645.400489	878.023044	-8.050962	532.379916	1059.229988	-436.935873	666.138664	883.203183	-372.271652	-58.656057	1110.685785	-210.215846	114.512867	1082.942260	-354.077913	123.562533	1074.716523	-76.683629	118.550427	995.588923	-332.723142	100.180733	1001.700296	-82.099988	-3.566806	1142.433112	-154.580706	8.224321	1147.555566	-265.352183	-16.065023	1021.410710	-12.769428	-20.673824	990.078185	-410.077202	60.351881	923.681851	20.716485	149.128337	912.877802	15.857448	217.026333	860.480186	15.938252	161.587142	946.999589	3.810220	324.761102	813.552002	3.780162	330.904990	806.854633	-114.331923	267.536146	708.275970	14.791571	271.307268	621.045956	-3.428458	231.709861	546.277551	-20.593634	304.269265	619.092210	-22.992279	211.843374	447.050334	-47.392993	241.974204	470.379883	-121.559041	164.576421	427.565800	-98.795325	404.499654	404.784765	-79.494697	319.651235	376.701608	-21.950702	46.370078	873.475794	-428.386009	122.355938	832.123676	-416.013352	146.305296	857.925534	-404.667013	167.561396	755.731942	-410.070924	242.185207	672.096291	-390.069024	242.240703	663.864546	-269.366736	-16.683131	400.409107	-378.066976	0.366141	391.986406	-298.586011	-75.592512	405.642627	-334.275823	32.337541	266.720559	-397.428072	145.872393	596.764526	-415.664919	115.388698	514.023758	-401.220183	45.516339	460.174249	-395.708761	141.006796	500.944226	-376.907741	109.531541	247.288111	-344.354647	-204.139638	832.283648	-224.671003	-78.544936	81.659509	-423.735231	-102.287885	81.453889	-24.100662	
2	0.0100	427.577162	1303.583990	-17.467086	450.750896	1313.443129	-350.933233	430.781162	1348.704270	-183.653183	453.017485	1208.248145	-180.668747	504.894132	1054.650977	52.049250	645.370632	878.008478	-8.037257	532.163206	1059.067372	-437.040981	666.115500	883.177819	-372.231951	-58.747477	1110.660530	-210.188245	114.377277	1083.004531	-354.130514	123.485910	1074.751845	-76.689944	118.454531	995.609910	-332.741190	100.111405	1001.695215	-82.076566	-3.619290	1142.441620	-154.581894	8.139031	1147.569411	-265.343427	-16.098155	1021.360292	-12.782468	-20.748162	990.050761	-410.074367	60.330018	923.629875	20.709322	149.109394	912.872180	15.873606	217.011202	860.500557	15.959097	161.579844	946.987149	3.854465	324.762238	813.551568	3.807165	330.917308	806.866582	-114.324417	267.497983	708.311315	14.796458	271.295417	621.052700	-3.438160	231.669282	546.307766	-20.610599	304.250911	619.086127	-22.991873	211.821754	447.073971	-47.415891	241.943571	470.431243	-121.586462	164.552183	427.569339	-98.810086	404.485597	404.853603	-79.508653	319.623667	376.760075	-21.938676	46.290782	873.444556	-428.443357	122.281928	832.051169	-416.063655	146.231011	857.871442	-404.742760	167.492552	755.689386	-410.120865	242.129090	672.075011	-390.146824	242.150756	663.880092	-269.488762	-16.707619	400.357208	-378.082903	0.374341	391.953502	-298.604591	-75.607030	405.577580	-334.285070	32.345085	266.679941	-397.414919	145.827137	596.727948	-415.719858	115.351111	513.998093	-401.275407	45.473951	460.138353	-395.734177	140.978371	500.905523	-376.940623	109.535390	247.240705	-344.337886	-204.134560	832.268915	-224.677587	-78.393432	83.130741	-422.769690	-102.275623	81.448195	-24.098297	
3	0.0150	427.566558	1303.485640	-17.461783	450.709515	1313.349938	-350.985177	430.783704	1348.596220	-183.649156	452.965870	1208.144022	-180.695739	504.815857	1054.558817	52.123542	645.382672	878.003663	-7.997687	531.970135	1058.923084	-437.153677	666.097599	883.149622	-372.180671	-58.814109	1110.621864	-210.174319	114.269853	1083.050840	-354.154482	123.420357	1074.754751	-76.684800	118.366023	995.648410	-332.742644	100.091739	1001.708773	-82.068980	-3.685183	1142.418517	-154.564716	8.065964	1147.584470	-265.325111	-16.154422	1021.322623	-12.790859	-20.814648	990.030834	-410.064893	60.313962	923.579318	20.727594	149.079871	912.849206	15.890765	216.996000	860.487289	15.986575	161.551674	946.980386	3.892416	324.759961	813.572570	3.812316	330.933598	806.888823	-114.304032	267.474638	708.342599	14.803354	271.262320	621.083942	-3.440224	231.650799	546.348411	-20.632361	304.242547	619.104867	-22.988949	211.771418	447.114923	-47.426329	241.924836	470.460761	-121.593595	164.527242	427.580893	-98.813743	404.455841	404.902533	-79.505669	319.608794	376.826472	-21.951561	46.213622	873.395735	-428.485255	122.219290	832.030575	-416.117454	146.156310	857.846429	-404.807844	167.416806	755.672335	-410.182830	242.096262	672.049233	-390.207196	242.068882	663.851048	-269.572301	-16.713675	400.300484	-378.078707	0.326001	391.935040	-298.590776	-75.615752	405.512528	-334.273290	32.368419	266.628137	-397.406502	145.795363	596.685898	-415.772922	115.328321	513.949596	-401.292079	45.462862	460.079359	-395.765450	140.951424	500.894859	-376.992883	109.559887	247.214154	-344.348081	-204.134560	832.268915	-224.677587	-78.523526	81.687182	-423.695182	-102.277212	81.451567	-24.097177	
4	0.0200	427.542852	1303.338601	-17.463844	450.654134	1313.268986	-351.035282	430.939914	1348.788396	-183.896585	452.907685	1208.079167	-180.735311	504.751318	1054.497752	52.179457	645.388590	877.993440	-7.959091	531.777513	1058.775123	-437.227450	666.080577	883.112546	-372.125713	-58.554327	1111.582913	-210.236998	114.162778	1083.097473	-354.167645	123.564178	1074.871449	-76.681621	118.296429	995.862160	-332.950844	100.047206	1001.692281	-82.021721	-2.465229	1141.245033	-155.006566	7.991700	1147.594568	-265.324876	-16.202161	1021.291854	-12.787473	-20.887623	989.996443	-410.046816	60.291072	923.521530	20.708992	149.351590	912.750082	15.933084	216.980392	860.496970	16.006186	161.565767	946.809086	3.805680	324.592792	813.262182	4.251520	330.986852	806.973136	-114.707262	267.456639	708.382855	14.804312	271.390130	621.313201	-3.345311	231.698967	546.355663	-20.634337	304.255413	618.963912	-23.120870	211.637878	447.257351	-47.342901	242.895801	471.728670	-121.269498	164.512210	427.622488	-98.832962	404.445742	404.957751	-79.511817	319.598049	376.877101	-21.949732	46.128994	873.368988	-428.532991	122.148261	831.994626	-416.175439	146.117370	858.007829	-405.102404	167.366612	755.634230	-410.230326	242.047799	672.025204	-390.282136	242.006983	663.850132	-269.653156	-16.724684	400.233931	-378.083286	0.333404	391.902058	-298.611858	-75.625313	405.463546	-334.274138	32.377716	266.571738	-397.422499	145.361057	596.629969	-415.591340	115.229066	513.919261	-401.274348	45.343198	460.244000	-395.580080	140.095686	500.100825	-376.149486	109.566016	247.168787	-344.347461	-204.131119	832.276453	-224.676484	-78.376983	83.154630	-422.746179	-102.261333	81.436328	-24.083887	
5	0.0250	427.394157	1303.068399	-17.492693	450.657013	1313.008138	-350.879578	430.890481	1348.419003	-183.816413	452.788034	1207.923957	-180.741840	504.692178	1054.414681	52.163024	644.920200	876.437633	-8.237050	531.368669	1057.794846	-436.963712	665.911982	882.864426	-371.959446	-58.759191	1110.078153	-210.324841	114.178973	1082.458003	-354.293389	123.493580	1074.839870	-76.681980	117.970114	995.135997	-332.649619	99.978940	1001.444091	-81.986871	-2.713462	1140.686672	-154.773041	8.594913	1147.599798	-265.623965	-15.602987	1021.174761	-12.475989	-20.917231	989.613667	-410.354627	60.525995	923.832624	20.988989	149.503199	912.807408	16.074195	216.962158	860.431629	16.013782	161.635825	947.022658	4.075115	324.575301	813.333748	4.269160	330.956560	806.898459	-114.245023	267.490764	708.522500	14.948609	271.399672	621.235282	-3.196283	231.789977	546.506948	-20.488974	304.309754	618.907241	-22.953966	211.467015	446.552638	-47.627571	242.917190	470.749372	-121.605835	164.258140	426.736921	-98.485101	404.312725	404.882231	-79.573657	319.614049	376.982569	-21.807336	46.198929	872.744748	-428.473845	121.804170	831.122821	-415.970252	145.673793	857.061938	-404.932286	167.152555	754.770584	-410.206498	241.724131	670.956965	-389.981509	242.063181	663.868886	-269.523555	-16.924548	399.548309	-378.146017	0.377594	391.872234	-298.511898	-75.852828	404.785195	-334.296203	32.137545	265.647302	-397.533655	145.364815	595.854164	-415.692472	115.149495	513.743546	-401.140238	45.250950	459.301673	-395.628643	140.124770	499.914218	-375.973851	109.481683	246.501927	-344.558890	-204.506722	831.326388	-224.295171	-78.426256	81.880608	-423.733674	-102.808997	80.601873	-24.310722	
6	0.0300	427.495766	1303.137901	-17.532766	450.614400	1312.888348	-350.880228	430.894980	1348.318345	-183.861778	452.706823	1207.834104	-180.745651	504.748833	1054.431558	52.207289	644.828884	876.259663	-8.413121	531.199651	1057.601013	-436.996402	665.924337	882.893647	-371.979490	-58.819957	1109.903541	-210.381817	114.061016	1082.398318	-354.232324	123.431887	1074.827994	-76.694445	117.852381	995.079621	-332.601484	99.957120	1001.857793	-82.033034	-2.640030	1141.146755	-154.907596	7.905482	1147.892529	-265.232605	-16.133626	1021.392639	-12.602990	-21.008660	989.548770	-410.336532	60.471406	923.788327	21.017732	149.469655	912.805954	16.107484	216.999757	860.501578	16.018395	161.660599	947.009309	4.123322	324.578429	813.348837	4.276177	331.023347	806.944417	-114.187074	267.515030	708.665186	14.945657	271.446855	621.365610	-3.220464	231.769001	546.589394	-20.491597	304.373443	619.048302	-22.971975	211.552887	446.678203	-47.663539	243.477124	471.222384	-121.223962	164.086185	427.009621	-98.612035	404.427095	404.996073	-79.540623	319.625987	377.108944	-21.807216	46.144811	872.649399	-428.436905	121.712087	830.989432	-415.979600	145.567042	856.938250	-404.965966	167.043390	754.623050	-410.175740	241.623534	670.858936	-390.002390	242.045086	663.877536	-269.577163	-16.966928	399.410867	-378.129109	0.327433	391.853593	-298.503811	-75.863976	404.669267	-334.292221	32.093563	265.435724	-397.475972	145.307850	595.736544	-415.707722	115.161095	513.688855	-401.165803	45.198573	459.131724	-395.639533	140.091743	499.880836	-375.965100	109.478269	246.315619	-344.494003	-204.470367	831.400410	-224.458117	-78.352782	81.879597	-423.727799	-102.665923	80.667538	-24.423235	
